<svg width="114" height="22" viewBox="0 0 114 22" fill="none" xmlns="http://www.w3.org/2000/svg">
<path d="M6.888 8.244H3.3V11.112H6.42V11.82H3.3V15H0.9V7.536H6.888V8.244ZM10.423 14.292H13.915V15H8.10703V7.536H10.423V14.292ZM15.0931 7.536H17.4931V15H15.0931V7.536ZM26.1485 9.984H23.8325V8.616C23.8325 8.456 23.8085 8.356 23.7605 8.316C23.7125 8.268 23.6125 8.244 23.4605 8.244H21.9845C21.8245 8.244 21.7205 8.268 21.6725 8.316C21.6325 8.356 21.6125 8.456 21.6125 8.616V13.92C21.6125 14.08 21.6325 14.184 21.6725 14.232C21.7205 14.272 21.8245 14.292 21.9845 14.292H23.4605C23.6125 14.292 23.7125 14.272 23.7605 14.232C23.8085 14.184 23.8325 14.08 23.8325 13.92V11.868H22.6085V11.16H26.1485V14.052C26.1485 14.684 25.8325 15 25.2005 15H20.2445C19.6125 15 19.2965 14.684 19.2965 14.052V8.484C19.2965 7.852 19.6125 7.536 20.2445 7.536H25.2005C25.8325 7.536 26.1485 7.852 26.1485 8.484V9.984ZM32.8948 7.536H35.2108V15H32.8948V11.616H30.0988V15H27.7828V7.536H30.0988V10.908H32.8948V7.536ZM43.1135 7.536V8.244H40.7975V15H38.4815V8.244H36.1895V7.536H43.1135ZM54.1756 7.536H56.4076L54.0196 15H51.3196L49.8916 9.888L48.4636 15H45.7756L43.3876 7.536H45.7276L47.1196 13.38L48.7516 7.536H51.0196L52.6516 13.38L54.1756 7.536ZM64.2933 8.484V14.052C64.2933 14.684 63.9773 15 63.3453 15H58.3773C57.7453 15 57.4293 14.684 57.4293 14.052V8.484C57.4293 7.852 57.7453 7.536 58.3773 7.536H63.3453C63.9773 7.536 64.2933 7.852 64.2933 8.484ZM61.9893 13.92V8.616C61.9893 8.456 61.9653 8.356 61.9173 8.316C61.8693 8.268 61.7693 8.244 61.6173 8.244H60.1173C59.9573 8.244 59.8533 8.268 59.8053 8.316C59.7653 8.356 59.7453 8.456 59.7453 8.616V13.92C59.7453 14.08 59.7653 14.184 59.8053 14.232C59.8533 14.272 59.9573 14.292 60.1173 14.292H61.6173C61.7693 14.292 61.8693 14.272 61.9173 14.232C61.9653 14.184 61.9893 14.08 61.9893 13.92ZM68.3254 8.244V11.616H70.3054C70.4574 11.616 70.5574 11.592 70.6054 11.544C70.6534 11.496 70.6774 11.396 70.6774 11.244V8.616C70.6774 8.456 70.6534 8.356 70.6054 8.316C70.5574 8.268 70.4574 8.244 70.3054 8.244H68.3254ZM68.3254 12.324V15H66.0094V7.536H72.0454C72.6774 7.536 72.9934 7.852 72.9934 8.484V11.376C72.9934 12.008 72.6774 12.324 72.0454 12.324H71.5054L73.1974 15H70.7854L69.1894 12.324H68.3254ZM79.6152 7.536H82.1112L79.4112 11.184L82.1832 15H79.6752L76.9872 11.184L79.6152 7.536ZM74.5992 7.536H76.8552V15H74.5992V7.536ZM87.5185 13.92V11.964C87.5185 11.812 87.4945 11.712 87.4465 11.664C87.4065 11.616 87.3065 11.592 87.1465 11.592H84.0145C83.3825 11.592 83.0665 11.276 83.0665 10.644V8.484C83.0665 7.852 83.3825 7.536 84.0145 7.536H88.8505C89.4825 7.536 89.7985 7.852 89.7985 8.484V9.876H87.4825V8.616C87.4825 8.456 87.4585 8.356 87.4105 8.316C87.3625 8.268 87.2625 8.244 87.1105 8.244H85.7545C85.5945 8.244 85.4905 8.268 85.4425 8.316C85.4025 8.356 85.3825 8.456 85.3825 8.616V10.512C85.3825 10.672 85.4025 10.776 85.4425 10.824C85.4905 10.864 85.5945 10.884 85.7545 10.884H88.8865C89.5185 10.884 89.8345 11.2 89.8345 11.832V14.052C89.8345 14.684 89.5185 15 88.8865 15H84.0505C83.4185 15 83.1025 14.684 83.1025 14.052V12.66H85.4185V13.92C85.4185 14.08 85.4425 14.184 85.4905 14.232C85.5385 14.272 85.6385 14.292 85.7905 14.292H87.1465C87.3065 14.292 87.4065 14.272 87.4465 14.232C87.4945 14.184 87.5185 14.08 87.5185 13.92Z" fill="black"/>
<path d="M113.356 7.78306C112.844 6.88624 111.688 6.57561 110.794 7.09938L104.85 10.5274L94.4521 5.00321L92.2896 6.24178L99.5985 13.55L94.0352 16.7597L91.1621 15.5392L89.5396 16.4779L94.1135 21.0554L112.663 10.3596C113.565 9.82054 113.867 8.67989 113.356 7.78306Z" fill="#6C63FF"/>
</svg>
