<svg width="55" height="55" viewBox="0 0 55 55" fill="none" xmlns="http://www.w3.org/2000/svg">
<path d="M8 33.333C8.34125 26.4279 11.5168 20.3312 18.2355 16.3876C27.5905 10.8966 37.0297 5.54809 46.4263 0.127547C46.8151 -0.096542 46.9283 -0.032138 47.0866 0.374714C49.3505 6.19603 47.1743 12.3481 43.1052 15.9595C42.7513 16.2736 42.3514 16.5241 41.941 16.7603C37.0503 19.5735 32.1608 22.3884 27.2727 25.2058C26.5741 25.6085 26.2243 26.2756 26.3333 26.9564C26.4525 27.701 27.0558 28.3179 27.7993 28.4527C28.2791 28.5395 28.6865 28.3443 29.0834 28.1158C33.879 25.3563 38.6743 22.5963 43.4694 19.8364C43.9255 19.5738 44.389 19.3234 44.8338 19.0431C45.0904 18.8813 45.2007 18.938 45.3014 19.2089C46.003 21.0994 46.378 23.0445 46.2383 25.0634C45.9321 29.4884 43.9969 33.059 40.3602 35.6006C38.6124 36.8222 36.6792 37.7803 34.8285 38.8551C33.9969 39.3379 33.1854 39.8629 32.3228 40.2829C30.3644 41.2363 29.4148 42.913 28.9818 44.9137C28.086 49.052 31.3732 53.0138 35.6212 52.9775C35.8558 52.9756 36.0901 52.9354 36.3242 52.9097C36.5328 52.8866 36.6961 52.9692 36.7502 53.1635C36.8014 53.3468 36.6736 53.4762 36.5094 53.5375C35.967 53.7402 35.4282 53.9578 34.8746 54.1251C24.0051 57.4116 12.228 51.1411 8.92349 40.3111C8.30606 38.2868 8.04848 36.2088 8 33.333Z" fill="#00ACEE"/>
</svg>
